<svg
          width="30px"
          height="20px"
          viewBox="0 0 30 20"
          version="1.1"
          xmlns="http://www.w3.org/2000/svg"
          
        >
          <g stroke="none" strokeWidth="1" fill="none" fillRule="evenodd">
            <g transform="translate(-320.000000, -38.000000)" fill="#304686">
              <g transform="translate(320.000000, 38.000000)">
                <path
                  d="M27.8,16.4 C28.6836556,16.4 29.4,17.1163444 29.4,18 C29.4,18.8205373 28.7823357,19.4968115 27.9865938,19.5892356 L27.8,19.6 L2.2,19.6 C1.3163444,19.6 0.6,18.8836556 0.6,18 C0.6,17.1794627 1.2176643,16.5031885 2.0134062,16.4107644 L2.2,16.4 L27.8,16.4 Z M27.8,8.4 C28.6836556,8.4 29.4,9.1163444 29.4,10 C29.4,10.8205373 28.7823357,11.4968115 27.9865938,11.5892356 L27.8,11.6 L2.2,11.6 C1.3163444,11.6 0.6,10.8836556 0.6,10 C0.6,9.17946266 1.2176643,8.50318854 2.0134062,8.41076437 L2.2,8.4 L27.8,8.4 Z M27.8,0.4 C28.6836556,0.4 29.4,1.1163444 29.4,2 C29.4,2.82053734 28.7823357,3.49681146 27.9865938,3.58923563 L27.8,3.6 L2.2,3.6 C1.3163444,3.6 0.6,2.8836556 0.6,2 C0.6,1.17946266 1.2176643,0.503188543 2.0134062,0.41076437 L2.2,0.4 L27.8,0.4 Z"
                  id="Combined-Shape"
                ></path>
              </g>
            </g>
          </g>
        </svg>